<svg width="50" height="60" viewBox="0 0 50 60" fill="none" xmlns="http://www.w3.org/2000/svg">
<rect x="39" y="36" width="10" height="22" rx="5" fill="white" stroke="black" stroke-width="2"/>
<rect x="40" y="46" width="8" height="2" fill="black"/>
<path d="M5 5C5 3.34315 6.34315 2 8 2H26C27.6569 2 29 3.34315 29 5V7C29 7.55228 28.5523 8 28 8H6C5.44772 8 5 7.55228 5 7V5Z" fill="white" stroke="black" stroke-width="2"/>
<rect x="1" y="12" width="32" height="47" rx="6" fill="white" stroke="black" stroke-width="2"/>
<path d="M5.5 31C5.5 31.2761 5.27611 31.5 5 31.5C4.72389 31.5 4.5 31.2761 4.5 31C4.5 30.7239 4.72389 30.5 5 30.5C5.27611 30.5 5.5 30.7239 5.5 31ZM5.5 39C5.5 39.2761 5.27611 39.5 5 39.5C4.72389 39.5 4.5 39.2761 4.5 39C4.5 38.7239 4.72389 38.5 5 38.5C5.27611 38.5 5.5 38.7239 5.5 39ZM7.5 35C7.5 35.2761 7.27611 35.5 7 35.5C6.72389 35.5 6.5 35.2761 6.5 35C6.5 34.7239 6.72389 34.5 7 34.5C7.27611 34.5 7.5 34.7239 7.5 35ZM13.5 31C13.5 31.2761 13.2761 31.5 13 31.5C12.7239 31.5 12.5 31.2761 12.5 31C12.5 30.7239 12.7239 30.5 13 30.5C13.2761 30.5 13.5 30.7239 13.5 31ZM13.5 39C13.5 39.2761 13.2761 39.5 13 39.5C12.7239 39.5 12.5 39.2761 12.5 39C12.5 38.7239 12.7239 38.5 13 38.5C13.2761 38.5 13.5 38.7239 13.5 39ZM15.5 35C15.5 35.2761 15.2761 35.5 15 35.5C14.7239 35.5 14.5 35.2761 14.5 35C14.5 34.7239 14.7239 34.5 15 34.5C15.2761 34.5 15.5 34.7239 15.5 35ZM21.5 31C21.5 31.2761 21.2761 31.5 21 31.5C20.7239 31.5 20.5 31.2761 20.5 31C20.5 30.7239 20.7239 30.5 21 30.5C21.2761 30.5 21.5 30.7239 21.5 31ZM21.5 39C21.5 39.2761 21.2761 39.5 21 39.5C20.7239 39.5 20.5 39.2761 20.5 39C20.5 38.7239 20.7239 38.5 21 38.5C21.2761 38.5 21.5 38.7239 21.5 39ZM23.5 35C23.5 35.2761 23.2761 35.5 23 35.5C22.7239 35.5 22.5 35.2761 22.5 35C22.5 34.7239 22.7239 34.5 23 34.5C23.2761 34.5 23.5 34.7239 23.5 35ZM9.5 31C9.5 31.2761 9.27611 31.5 9 31.5C8.72389 31.5 8.5 31.2761 8.5 31C8.5 30.7239 8.72389 30.5 9 30.5C9.27611 30.5 9.5 30.7239 9.5 31ZM9.5 39C9.5 39.2761 9.27611 39.5 9 39.5C8.72389 39.5 8.5 39.2761 8.5 39C8.5 38.7239 8.72389 38.5 9 38.5C9.27611 38.5 9.5 38.7239 9.5 39ZM11.5 35C11.5 35.2761 11.2761 35.5 11 35.5C10.7239 35.5 10.5 35.2761 10.5 35C10.5 34.7239 10.7239 34.5 11 34.5C11.2761 34.5 11.5 34.7239 11.5 35ZM17.5 31C17.5 31.2761 17.2761 31.5 17 31.5C16.7239 31.5 16.5 31.2761 16.5 31C16.5 30.7239 16.7239 30.5 17 30.5C17.2761 30.5 17.5 30.7239 17.5 31ZM17.5 39C17.5 39.2761 17.2761 39.5 17 39.5C16.7239 39.5 16.5 39.2761 16.5 39C16.5 38.7239 16.7239 38.5 17 38.5C17.2761 38.5 17.5 38.7239 17.5 39ZM19.5 35C19.5 35.2761 19.2761 35.5 19 35.5C18.7239 35.5 18.5 35.2761 18.5 35C18.5 34.7239 18.7239 34.5 19 34.5C19.2761 34.5 19.5 34.7239 19.5 35ZM25.5 31C25.5 31.2761 25.2761 31.5 25 31.5C24.7239 31.5 24.5 31.2761 24.5 31C24.5 30.7239 24.7239 30.5 25 30.5C25.2761 30.5 25.5 30.7239 25.5 31ZM25.5 39C25.5 39.2761 25.2761 39.5 25 39.5C24.7239 39.5 24.5 39.2761 24.5 39C24.5 38.7239 24.7239 38.5 25 38.5C25.2761 38.5 25.5 38.7239 25.5 39ZM27.5 35C27.5 35.2761 27.2761 35.5 27 35.5C26.7239 35.5 26.5 35.2761 26.5 35C26.5 34.7239 26.7239 34.5 27 34.5C27.2761 34.5 27.5 34.7239 27.5 35ZM29.5 31C29.5 31.2761 29.2761 31.5 29 31.5C28.7239 31.5 28.5 31.2761 28.5 31C28.5 30.7239 28.7239 30.5 29 30.5C29.2761 30.5 29.5 30.7239 29.5 31ZM29.5 39C29.5 39.2761 29.2761 39.5 29 39.5C28.7239 39.5 28.5 39.2761 28.5 39C28.5 38.7239 28.7239 38.5 29 38.5C29.2761 38.5 29.5 38.7239 29.5 39Z" fill="#FF7D4E" stroke="#FF7D4E"/>
<rect x="7" y="8" width="20" height="4" fill="white" stroke="black" stroke-width="2"/>
</svg>
