<svg width="294" height="350" viewBox="0 0 294 350" fill="none" xmlns="http://www.w3.org/2000/svg">
<path d="M147 53.681C125.111 53.681 107.299 71.5031 107.299 93.4049V148.16H53.6496V93.4049C53.6496 41.8712 95.4963 0 147 0C198.504 0 240.35 41.8712 240.35 93.4049V148.16H186.701V93.4049C186.701 71.5031 168.889 53.681 147 53.681Z" fill="#FAF8F6"/>
<path d="M186.701 148.16H107.299V202.914C107.299 224.816 125.111 242.638 147 242.638C168.889 242.638 186.701 224.816 186.701 202.914V148.16Z" fill="#FAF8F6"/>
<path d="M240.35 148.16H294V202.914C294 284.08 228.118 350 147 350C65.8818 350 0 284.08 0 202.914V148.16H53.6496V202.914C53.6496 254.448 95.4963 296.319 147 296.319C198.504 296.319 240.35 254.448 240.35 202.914V148.16Z" fill="#FAF8F6"/>
</svg>
