<svg width="560" height="1663" viewBox="0 0 560 1663" fill="none" xmlns="http://www.w3.org/2000/svg">
<g opacity="0.05">
<path fill-rule="evenodd" clip-rule="evenodd" d="M527.562 701.679H917.5V963.316C917.5 1067.97 830.027 1153.13 722.531 1153.13C615.035 1153.13 527.562 1067.97 527.562 963.316V701.679Z" fill="#E99478"/>
<path fill-rule="evenodd" clip-rule="evenodd" d="M1181.36 701.679V962.454C1181.36 1207.89 975.681 1407.31 722.531 1407.31C469.381 1407.31 263.697 1207.89 263.697 962.454V701.679H0V962.454C0 1349.02 323.82 1662.97 722.531 1662.97C1121.24 1662.97 1445.06 1349.02 1445.06 962.454V701.679H1181.36Z" fill="#E99478"/>
<path fill-rule="evenodd" clip-rule="evenodd" d="M722.531 0C469.428 0 263.781 198.3 263.781 442.363V701.679H527.431V442.363C527.431 338.636 614.962 254.231 722.531 254.231C830.1 254.231 917.632 338.636 917.632 442.363V701.679H1181.28V442.363C1181.28 198.3 975.634 0 722.531 0Z" fill="#E99478"/>
</g>
</svg>
