<svg width="20" height="19" viewBox="0 0 20 19" fill="none" xmlns="http://www.w3.org/2000/svg">
<path d="M10.8713 0.590764L13.1058 5.15105C13.2713 5.48271 13.5609 5.68999 13.892 5.73145L18.8988 6.47768C19.7678 6.60205 20.1402 7.67993 19.4781 8.30179L15.8781 11.8256C15.6299 12.0744 15.5057 12.406 15.5885 12.7792L16.4575 17.754C16.623 18.6246 15.6713 19.2879 14.9264 18.8734L10.4575 16.5103C10.1265 16.3445 9.75409 16.3445 9.46444 16.5103L4.95415 18.8734C4.16795 19.2879 3.25762 18.6246 3.42314 17.754L4.29209 12.7792C4.33347 12.4475 4.25071 12.0744 4.00244 11.8256L0.319728 8.30179C-0.300954 7.67993 0.0300763 6.60205 0.899031 6.47768L5.90586 5.73145C6.23689 5.68999 6.56792 5.48271 6.69206 5.15105L8.92651 0.590764C9.3403 -0.196921 10.4575 -0.196921 10.8713 0.590764Z" fill="#FFC329"/>
</svg>
