<svg width="244" height="547" viewBox="0 0 244 547" fill="none" xmlns="http://www.w3.org/2000/svg">
<g opacity="0.05">
<path fill-rule="evenodd" clip-rule="evenodd" d="M173.506 230.622H301.667V316.615C301.667 351.012 272.917 379.001 237.587 379.001C202.256 379.001 173.506 351.012 173.506 316.615V230.622Z" fill="#E99478"/>
<path fill-rule="evenodd" clip-rule="evenodd" d="M388.392 230.622V316.331C388.392 396.999 320.79 462.542 237.587 462.542C154.384 462.542 86.7812 396.999 86.7812 316.331V230.622H0.111328V316.331C0.111328 443.383 106.542 546.571 237.587 546.571C368.632 546.571 475.062 443.383 475.062 316.331V230.622H388.392Z" fill="#E99478"/>
<path fill-rule="evenodd" clip-rule="evenodd" d="M237.587 0C154.399 0 86.8086 65.1757 86.8086 145.392V230.622H173.463V145.392C173.463 111.3 202.232 83.5586 237.587 83.5586C272.941 83.5586 301.711 111.3 301.711 145.392V230.622H388.365V145.392C388.365 65.1757 320.774 0 237.587 0Z" fill="#E99478"/>
</g>
</svg>
