<svg width="682" height="472" viewBox="0 0 682 472" fill="none" xmlns="http://www.w3.org/2000/svg">
<path opacity="0.1" fill-rule="evenodd" clip-rule="evenodd" d="M668.752 0.2361C667.857 0.0808964 666.937 0 665.998 0H609.615V0.2361H668.752ZM350.392 0H175.241V0.2361H350.392V0ZM681.998 364.299V456C681.998 464.837 674.835 472 665.998 472H150.117C57.6954 393.686 0 282.879 0 160.131V0.236011H175.182V160.131C175.182 310.621 311.825 432.893 480 432.893C557.439 432.893 628.193 406.968 681.998 364.299ZM609.522 0.236011H350.474V160.659C350.474 224.828 408.585 277.045 479.998 277.045C551.411 277.045 609.522 224.828 609.522 160.659V0.236011Z" fill="white"/>
</svg>
